<?xml version="1.0" encoding="utf-8"?>
<!-- Generator: Adobe Illustrator 21.0.0, SVG Export Plug-In . SVG Version: 6.00 Build 0)  -->
<svg version="1.1" id="Laag_1" xmlns="http://www.w3.org/2000/svg" xmlns:xlink="http://www.w3.org/1999/xlink" x="0px" y="0px"
	 viewBox="0 0 622.6 1098.5" style="enable-background:new 0 0 622.6 1098.5;" xml:space="preserve">
<style type="text/css">
	.st0{fill:#FFFFFF;stroke:#000000;stroke-width:7;stroke-miterlimit:10;}
	.st1{stroke:#FFFFFF;stroke-width:100;stroke-miterlimit:10;}
	.st2{fill:#FFFFFF;stroke:#050505;stroke-width:4;stroke-miterlimit:10;}
</style>
<g>
	<path class="st0" d="M311.3,735.3c-63.8,0-126.1-17.5-180.2-50.7c-52.6-32.2-95.7-78-124.6-132.4L0,539.9l6.5-12.3
		c29-54.4,72-100.2,124.6-132.4c54.1-33.2,116.4-50.7,180.2-50.7c63.8,0,126.1,17.5,180.2,50.7c52.6,32.2,95.7,78,124.6,132.4
		l6.5,12.3l-6.5,12.3c-29,54.4-72,100.2-124.6,132.4C437.4,717.8,375.1,735.3,311.3,735.3z"/>
</g>
<circle class="st1" cx="311.3" cy="539.9" r="135.1"/>
<circle class="st2" cx="251.3" cy="472.3" r="61.8"/>
</svg>
