<?xml version="1.0" encoding="utf-8"?>
<!-- Generator: Adobe Illustrator 21.0.0, SVG Export Plug-In . SVG Version: 6.00 Build 0)  -->
<svg version="1.1" id="Laag_1" xmlns="http://www.w3.org/2000/svg" xmlns:xlink="http://www.w3.org/1999/xlink" x="0px" y="0px"
	 viewBox="0 0 622.644 1098.48" style="enable-background:new 0 0 622.644 1098.48;" xml:space="preserve">
<style type="text/css">
	.st0{fill:#FFFFFF;}
</style>
<path class="st0" d="M409.907,572.271c48.251-32.04,80.157-86.817,80.157-148.956c0-98.564-80.179-178.742-178.743-178.742
	c-98.562,0-178.741,80.178-178.741,178.742c0,62.139,31.905,116.916,80.156,148.956c-109.193,40.289-187.4,145.099-187.4,268.108
	v23.832h571.973v-23.832C597.309,717.37,519.1,612.56,409.907,572.271z M180.245,423.315c0-72.276,58.813-131.077,131.077-131.077
	c72.265,0,131.079,58.801,131.079,131.077s-58.814,131.077-131.079,131.077C239.057,554.392,180.245,495.591,180.245,423.315z
	 M74.187,816.546c11.985-120.254,113.761-214.49,237.134-214.49c123.374,0,225.151,94.236,237.135,214.49H74.187z"/>
</svg>
