<svg id="Laag_1" data-name="Laag 1" xmlns="http://www.w3.org/2000/svg" viewBox="0 0 1502.43 314.84"><title>space-01</title><path d="M107.07,263.9a62.18,62.18,0,0,0,16-9.26,43.69,43.69,0,0,0,11.47-14.11,38.39,38.39,0,0,0,4.36-17.93,31.1,31.1,0,0,0-3.33-14.94,39.48,39.48,0,0,0-9-11.81,67.37,67.37,0,0,0-13.5-9,120.54,120.54,0,0,0-15.34-6.86q-7.24-2.62-16.08-5a157.52,157.52,0,0,1-34.93-14.13,95.36,95.36,0,0,1-27-22.58A71.21,71.21,0,0,1,7.46,116.78,72.49,72.49,0,0,1,3.14,91.92,85.52,85.52,0,0,1,88.93,6.37a84.31,84.31,0,0,1,30.3,5.43,86.17,86.17,0,0,1,25.93,15.47,83.22,83.22,0,0,1,26.27,41.41l-39.58,8.41a45.48,45.48,0,0,0-10.69-16.84,44.43,44.43,0,0,0-49-9.82,45.93,45.93,0,0,0-14.47,9.81,46.42,46.42,0,0,0-9.9,14.58,43.2,43.2,0,0,0-3.62,17.3,37.85,37.85,0,0,0,7,22.09A40,40,0,0,0,59,122.12a70.05,70.05,0,0,0,9.43,6.22,104.55,104.55,0,0,0,10.85,5q6.3,2.51,10.85,4L101,140.75q6.28,2,9.55,3.13a149.87,149.87,0,0,1,20.64,9,118.3,118.3,0,0,1,18.71,12.59,94.67,94.67,0,0,1,15.5,15.76,70.23,70.23,0,0,1,10.44,19.3,66.07,66.07,0,0,1,3.87,22.51,77.47,77.47,0,0,1-7.6,33.6A86.51,86.51,0,0,1,152.07,284a97,97,0,0,1-28.95,18.09,89.28,89.28,0,0,1-33.87,6.71,91.43,91.43,0,0,1-37-7.92A93.14,93.14,0,0,1,21,278.79,83.71,83.71,0,0,1,2,246.23l39.8-8.47a47,47,0,0,0,19,21.89A51.83,51.83,0,0,0,89,268.15,60.41,60.41,0,0,0,107.07,263.9Z" fill="#2a3e50"/><path d="M246.5,221.37V8.7H346.86A99.61,99.61,0,0,1,447.41,109a94,94,0,0,1-29.33,70.56,96.48,96.48,0,0,1-71.23,29.33H286.2v96.36H246.5Zm39.71-51.67h12.37l48.29.2a60.3,60.3,0,0,0,23.34-4.4A61.11,61.11,0,0,0,390,152.13a65.82,65.82,0,0,0,13.17-19.76,61.17,61.17,0,0,0,0-46.48A64,64,0,0,0,390,66.14a60.26,60.26,0,0,0-19.56-13.57A59.47,59.47,0,0,0,346.89,48H286.2v121.7Z" fill="#2a3e50"/><path d="M700.49,305.37H658L636,256.52H510L488,305.37H445.53L573,5.92ZM572.91,224.55h48.58q-12.18-27.93-24.24-60t-24-60.24q-12.18,28.13-24.44,60.24t-24.24,60Z" fill="#2a3e50"/><path d="M884,7.09a164.89,164.89,0,0,1,30.32,2.79,144.13,144.13,0,0,1,28.13,9,184.23,184.23,0,0,1,25.94,14.17q7.24,5,13.17,9.77L953,71.39a110.72,110.72,0,0,0-26.54-16.16,108.91,108.91,0,0,0-42-8.23,110.36,110.36,0,0,0-42.3,8.18,114.34,114.34,0,0,0-35.51,24.33,109.45,109.45,0,0,0-24.13,35.71h-.2a108.55,108.55,0,0,0,24.33,120.31,102.16,102.16,0,0,0,35.51,24.13,110.36,110.36,0,0,0,42.3,8.18,111.9,111.9,0,0,0,42.5-8.18,99.92,99.92,0,0,0,26.54-16l28.33,28.53A154.05,154.05,0,0,1,968.64,282a145.51,145.51,0,0,1-25.94,14.17A133.88,133.88,0,0,1,914.57,305a148.35,148.35,0,0,1-30.32,3,150.34,150.34,0,0,1-57.69-11,146.7,146.7,0,0,1-48.72-33.07,143.57,143.57,0,0,1-33.13-48.85,157,157,0,0,1,0-115.31,157.69,157.69,0,0,1,81.85-82.46,146,146,0,0,1,41.5-10.17Z" fill="#2a3e50"/><path d="M1217.33,8.11V47.6H1088.19v89.77h96.75v39.51h-96.75v89.77h129.14v39.49H1048.48V8.11Z" fill="#2a3e50"/><path d="M1332.44,8.7l51.33,89.57L1394.62,117l10.85-18.76L1456.95,8.7h45.48L1421,150.76l-3.62,6.19,3.62,6.19,81.41,142.25h-45.48l-51.47-89.57-10.85-19-10.85,19-51.52,89.7-45.48-.2L1368,162.86l3.62-6.19-3.62-6L1287,8.63Z" fill="#2a3e50"/></svg>