<?xml version="1.0" encoding="utf-8"?>
<!-- Generator: Adobe Illustrator 21.0.0, SVG Export Plug-In . SVG Version: 6.00 Build 0)  -->
<svg version="1.1" id="Laag_1" xmlns="http://www.w3.org/2000/svg" xmlns:xlink="http://www.w3.org/1999/xlink" x="0px" y="0px"
	 viewBox="0 0 1502.43 314.84" style="enable-background:new 0 0 1502.43 314.84;" xml:space="preserve">
<style type="text/css">
	.st0{fill:#2A3E50;}
</style>
<title>space</title>
<g>
	<path class="st0" d="M107.072,263.901c5.756-2.275,11.141-5.397,15.975-9.263c4.771-3.847,8.679-8.655,11.47-14.111
		c2.889-5.533,4.386-11.687,4.36-17.929c0.153-5.181-0.991-10.318-3.329-14.944c-2.239-4.476-5.309-8.485-9.046-11.814
		c-4.117-3.549-8.649-6.586-13.496-9.046c-4.948-2.64-10.074-4.931-15.342-6.857c-4.824-1.749-10.186-3.425-16.083-5.029
		c-12.168-3.295-23.897-8.039-34.935-14.129c-10.314-5.788-19.461-13.444-26.974-22.578c-5.285-6.376-9.418-13.624-12.212-21.42
		c-2.883-7.969-4.347-16.383-4.324-24.858c-0.082-22.686,8.922-44.459,25.002-60.462C44.254,15.34,66.132,6.309,88.927,6.369
		c10.349-0.066,20.621,1.774,30.303,5.427c9.485,3.59,18.261,8.827,25.925,15.468c12.717,10.852,21.871,25.282,26.269,41.411
		l-39.584,8.413c-2.274-6.336-5.925-12.089-10.692-16.843c-12.771-13.024-32.205-16.92-49.01-9.824
		c-5.408,2.312-10.321,5.641-14.473,9.806c-4.199,4.184-7.559,9.134-9.896,14.582c-2.385,5.454-3.617,11.343-3.618,17.295
		c-0.038,7.912,2.404,15.637,6.983,22.09c2.251,2.999,4.912,5.666,7.906,7.924c2.969,2.325,6.121,4.406,9.426,6.223
		c3.52,1.87,7.144,3.537,10.855,4.993c4.197,1.676,7.815,3.003,10.855,3.98l10.855,3.437c4.185,1.315,7.369,2.358,9.552,3.13
		c7.098,2.493,13.998,5.517,20.642,9.046c6.622,3.592,12.886,7.808,18.707,12.592c5.766,4.629,10.969,9.918,15.504,15.758
		c4.47,5.848,7.992,12.362,10.439,19.304c2.587,7.22,3.897,14.836,3.872,22.506c0.02,11.627-2.577,23.109-7.598,33.596
		c-4.822,10.354-11.648,19.651-20.082,27.354c-8.504,7.694-18.304,13.819-28.946,18.091c-10.745,4.42-22.249,6.699-33.867,6.712
		c-12.756-0.03-25.365-2.73-37.015-7.924c-11.815-5.139-22.435-12.673-31.19-22.126c-8.732-9.267-15.235-20.405-19.014-32.565
		l39.801-8.467c3.87,9.114,10.518,16.775,18.996,21.891c8.361,5.489,18.131,8.442,28.132,8.503
		C95.182,267.679,101.291,266.245,107.072,263.901z"/>
	<path class="st0" d="M246.503,221.368V8.703h100.353c13.196-0.158,26.288,2.339,38.499,7.345
		c38.005,15.072,62.714,52.093,62.054,92.972c0.662,26.612-9.996,52.255-29.326,70.557c-18.641,19.24-44.442,29.863-71.226,29.326
		h-60.661v96.355h-39.693V221.368z M286.214,169.699h12.375l48.286,0.199c7.994,0.096,15.927-1.398,23.338-4.396
		c7.4-3.116,14.113-7.659,19.756-13.37c5.552-5.732,10.014-12.427,13.171-19.756c6.115-14.889,6.115-31.588,0-46.477
		c-3.12-7.349-7.587-14.05-13.171-19.756c-5.552-5.778-12.201-10.391-19.557-13.569c-7.447-3.112-15.449-4.675-23.519-4.595h-60.697
		v121.701L286.214,169.699z"/>
	<path class="st0" d="M700.49,305.366h-42.497l-21.945-48.847H509.951l-21.945,48.847h-42.479l127.49-299.45L700.49,305.366z
		 M572.909,224.552h48.576c-8.117-18.622-16.198-38.637-24.243-60.046c-8.045-21.408-16.035-41.49-23.971-60.245
		c-8.117,18.755-16.264,38.836-24.442,60.245s-16.258,41.423-24.243,60.046H572.909z"/>
	<path class="st0" d="M883.956,7.093c10.171-0.009,20.322,0.924,30.321,2.786c9.663,2.043,19.089,5.075,28.132,9.046
		c9.013,4.019,17.689,8.756,25.943,14.166c4.824,3.329,9.215,6.585,13.171,9.769l-28.53,28.53
		c-8.043-6.606-16.978-12.045-26.54-16.156c-13.32-5.496-27.599-8.294-42.008-8.232c-14.5-0.079-28.873,2.699-42.298,8.177
		c-13.272,5.789-25.323,14.047-35.514,24.333c-10.332,10.187-18.536,22.326-24.134,35.713H782.3
		c-17.518,41.279-7.849,89.081,24.333,120.308c9.995,10.47,22.1,18.696,35.514,24.134c13.425,5.478,27.798,8.257,42.298,8.177
		c14.563,0.066,28.998-2.712,42.497-8.177c9.622-3.907,18.576-9.291,26.54-15.957l28.331,28.53
		c-4.214,3.488-8.61,6.749-13.171,9.769c-8.144,5.59-16.837,10.337-25.943,14.166c-9.026,3.951-18.461,6.894-28.132,8.774
		c-9.978,2.033-20.139,3.033-30.321,2.985c-19.765,0.174-39.37-3.552-57.693-10.963c-18.308-7.618-34.882-18.868-48.72-33.071
		c-14.305-13.813-25.586-30.446-33.125-48.847c-14.631-37.046-14.631-78.269,0-115.315c15.792-36.902,45.063-66.393,81.846-82.461
		c13.26-5.406,27.244-8.832,41.502-10.167L883.956,7.093z"/>
	<path class="st0" d="M1217.327,8.106v39.494H1088.19v89.77h96.753v39.512h-96.753v89.77h129.137v39.494h-168.848V8.106H1217.327z"
		/>
	<path class="st0" d="M1332.443,8.703l51.326,89.571l10.855,18.761l10.855-18.761l51.47-89.571h45.482l-81.411,142.054l-3.618,6.187
		l3.618,6.187l81.411,142.253h-45.482l-51.47-89.571l-10.855-18.96l-10.855,18.96l-51.525,89.697l-45.482-0.199l81.194-142.452
		l3.618-6.187l-3.618-5.988L1286.961,8.63L1332.443,8.703z"/>
</g>
</svg>
