<?xml version="1.0" encoding="utf-8"?>
<!-- Generator: Adobe Illustrator 21.0.0, SVG Export Plug-In . SVG Version: 6.00 Build 0)  -->
<svg version="1.1" id="Laag_1" xmlns="http://www.w3.org/2000/svg" xmlns:xlink="http://www.w3.org/1999/xlink" x="0px" y="0px"
	 viewBox="0 0 825.898 1080.177" style="enable-background:new 0 0 825.898 1080.177;" xml:space="preserve">
<style type="text/css">
	.st0{fill:#FFFFFF;}
</style>
<path class="st0" d="M47.545,1070.177c-21.511,0-38.946-16.269-38.946-36.363V45.892c0-20.094,17.435-36.363,38.946-36.363
	c21.492,0,38.946,16.269,38.946,36.363v987.922C86.49,1053.907,69.037,1070.177,47.545,1070.177z"/>
<g>
	<polygon class="st0" points="419.214,532.789 529.773,515.294 529.773,107.435 419.214,89.943 	"/>
	<path class="st0" d="M758.366,143.525l-72.481-11.426v358.528l72.481-11.426c28.435-4.49,51.689-40.029,51.689-78.953V222.484
		C810.055,183.553,786.801,148.018,758.366,143.525z"/>
	<path class="st0" d="M263.104,65.24L189.58,53.657c-28.438-4.49-51.691,23.72-51.691,62.644v390.127
		c0,38.927,23.254,67.137,51.691,62.647l73.524-11.583V65.24z"/>
</g>
</svg>
